<svg xmlns="http://www.w3.org/2000/svg" xmlns:xlink="http://www.w3.org/1999/xlink" viewBox="0,0,256,256" width="120px" height="120px" fill-rule="nonzero"><g fill="#f59e0b" fill-rule="nonzero" stroke="none" stroke-width="1" stroke-linecap="butt" stroke-linejoin="miter" stroke-miterlimit="10" stroke-dasharray="" stroke-dashoffset="0" font-family="none" font-weight="none" font-size="none" text-anchor="none" style="mix-blend-mode: normal"><g transform="scale(10.66667,10.66667)"><path d="M7.25,4.00586c-1.57,0 -2.96212,1.01721 -3.46094,2.51367c-0.00273,0.00777 -0.00534,0.01558 -0.00781,0.02344l-2.41797,8.14063c-0.2355,0.57889 -0.36328,1.19676 -0.36328,1.81641c0,1.10417 0.3645,2.21841 1.12695,3.07617c0.76245,0.85776 1.93555,1.42383 3.37305,1.42383c1.4375,0 2.61059,-0.56607 3.37305,-1.42383c0.73586,-0.82785 1.09261,-1.89491 1.11719,-2.96094c1.29869,0.47053 2.72084,0.47053 4.01953,0c0.02458,1.06602 0.38132,2.13309 1.11719,2.96094c0.76245,0.85776 1.93555,1.42383 3.37305,1.42383c1.4375,0 2.61059,-0.56607 3.37305,-1.42383c0.76245,-0.85776 1.12695,-1.972 1.12695,-3.07617c0,-0.61965 -0.12778,-1.23752 -0.36328,-1.81641l-2.41797,-8.14063c-0.00248,-0.00785 -0.00508,-0.01567 -0.00781,-0.02344c-0.49883,-1.49646 -1.89094,-2.51367 -3.46094,-2.51367c-1.88643,0 -3.37899,1.43159 -3.62695,3.18555c-0.36747,-0.09886 -0.74532,-0.15039 -1.12305,-0.15039c-0.37772,0 -0.75557,0.05153 -1.12305,0.15039c-0.24794,-1.75396 -1.74052,-3.18555 -3.62695,-3.18555zM7.25,5.50586c1.35556,0 2.34569,1.1817 2.1582,2.49414c-0.00257,0.0175 -0.00453,0.03509 -0.00586,0.05273l-0.07031,0.98047c-0.02491,0.27066 0.09855,0.53361 0.32271,0.68733c0.22416,0.15372 0.51393,0.17415 0.75744,0.0534c0.24351,-0.12075 0.40264,-0.36379 0.41595,-0.63526l0.02539,-0.35352c0.72852,-0.32546 1.56445,-0.32546 2.29297,0l0.02539,0.35352c0.01331,0.27147 0.17244,0.51451 0.41595,0.63526c0.24351,0.12075 0.53328,0.10032 0.75744,-0.0534c0.22416,-0.15372 0.34762,-0.41667 0.32271,-0.68733l-0.07031,-0.98047c-0.00133,-0.01764 -0.00328,-0.03523 -0.00586,-0.05273c-0.18749,-1.31244 0.80265,-2.49414 2.1582,-2.49414c0.93,0 1.73788,0.58474 2.03906,1.48828l1.59375,5.375c-0.55525,-0.23405 -1.18714,-0.36914 -1.88281,-0.36914c-1.4375,0 -2.61059,0.56607 -3.37305,1.42383c-0.37145,0.41789 -0.64562,0.89744 -0.83203,1.40625c-1.40441,0.86106 -3.18544,0.86106 -4.58984,0c-0.18642,-0.50881 -0.46058,-0.98836 -0.83203,-1.40625c-0.76245,-0.85776 -1.93555,-1.42383 -3.37305,-1.42383c-0.69567,0 -1.32757,0.13509 -1.88281,0.36914l1.59375,-5.375c0.30118,-0.90354 1.10906,-1.48828 2.03906,-1.48828zM5.5,13.5c1.0625,0 1.76441,0.37143 2.25195,0.91992c0.48755,0.54849 0.74805,1.30925 0.74805,2.08008c0,0.77083 -0.2605,1.53159 -0.74805,2.08008c-0.48755,0.54849 -1.18945,0.91992 -2.25195,0.91992c-1.0625,0 -1.76441,-0.37143 -2.25195,-0.91992c-0.48755,-0.54849 -0.74805,-1.30925 -0.74805,-2.08008c0,-0.37033 0.06314,-0.73682 0.17969,-1.08008c0.03798,-0.05875 0.06756,-0.12252 0.08789,-0.18945l0.01563,-0.05469c0.12038,-0.27554 0.26911,-0.53566 0.46484,-0.75586c0.48755,-0.54849 1.18945,-0.91992 2.25195,-0.91992zM18.5,13.5c1.0625,0 1.76441,0.37143 2.25195,0.91992c0.19573,0.2202 0.34446,0.48032 0.46484,0.75586l0.01563,0.05469c0.02033,0.06694 0.04991,0.1307 0.08789,0.18945c0.11654,0.34326 0.17969,0.70975 0.17969,1.08008c0,0.77083 -0.2605,1.53159 -0.74805,2.08008c-0.48755,0.54849 -1.18945,0.91992 -2.25195,0.91992c-1.0625,0 -1.76441,-0.37143 -2.25195,-0.91992c-0.48754,-0.54849 -0.74805,-1.30925 -0.74805,-2.08008c0,-0.77083 0.2605,-1.53159 0.74805,-2.08008c0.48755,-0.54849 1.18945,-0.91992 2.25195,-0.91992z"></path></g></g></svg>